<?xml version="1.0" standalone="no"?>
<!DOCTYPE svg PUBLIC "-//W3C//DTD SVG 20010904//EN"
 "http://www.w3.org/TR/2001/REC-SVG-20010904/DTD/svg10.dtd">
<svg version="1.0" xmlns="http://www.w3.org/2000/svg"
 width="422.000000pt" height="422.000000pt" viewBox="0 0 422.000000 422.000000"
 preserveAspectRatio="xMidYMid meet">
<metadata>
Created by potrace 1.14, written by Peter Selinger 2001-2017
</metadata>
<g transform="translate(0.000000,422.000000) scale(0.100000,-0.100000)"
fill="#000000" stroke="none">
<path d="M0 2110 l0 -2110 2110 0 2110 0 0 2110 0 2110 -2110 0 -2110 0 0
-2110z m2394 1654 c176 -30 332 -103 443 -207 165 -154 243 -362 230 -612 -10
-178 -55 -298 -163 -429 -69 -83 -160 -161 -409 -348 -110 -83 -232 -180 -272
-215 -145 -129 -197 -258 -173 -433 6 -45 9 -84 7 -86 -3 -3 -20 -7 -39 -10
l-34 -6 -27 88 c-41 133 -57 220 -57 309 0 166 35 233 268 523 255 317 322
425 353 567 16 76 16 261 0 340 -49 238 -194 407 -361 422 -123 12 -225 -49
-277 -165 -14 -32 -41 -131 -59 -221 -39 -185 -71 -267 -122 -312 -45 -39 -75
-50 -140 -50 -249 0 -310 351 -102 584 118 131 296 222 515 261 109 19 309 20
419 0z m-234 -2697 c20 -10 52 -33 73 -53 120 -117 121 -321 1 -439 -57 -55
-106 -75 -190 -75 -88 0 -158 32 -210 95 -90 111 -98 262 -18 377 30 42 98 94
142 109 43 13 163 5 202 -14z"/>
<path d="M2320 3677 c0 -2 27 -22 61 -47 102 -74 176 -188 216 -332 24 -90 25
-347 0 -438 -41 -152 -121 -276 -404 -626 -124 -153 -189 -267 -198 -349 l-6
-50 40 74 c48 88 80 123 311 331 328 296 438 424 482 560 29 91 36 297 14 395
-52 222 -226 401 -452 465 -35 10 -64 18 -64 17z"/>
<path d="M1721 3604 c-117 -58 -213 -149 -261 -248 -29 -58 -35 -82 -38 -155
-4 -74 -1 -94 16 -128 38 -73 112 -81 146 -16 8 16 24 82 35 147 37 202 71
282 169 387 32 35 48 59 39 59 -8 0 -56 -21 -106 -46z"/>
<path d="M1955 1001 c-111 -69 -148 -199 -89 -318 19 -40 39 -63 72 -84 49
-31 108 -39 130 -17 17 17 17 409 0 426 -18 18 -79 14 -113 -7z"/>
</g>
</svg>
